<?xml version="1.0" standalone="no"?>
<!DOCTYPE svg PUBLIC "-//W3C//DTD SVG 20010904//EN"
 "http://www.w3.org/TR/2001/REC-SVG-20010904/DTD/svg10.dtd">
<svg version="1.0" xmlns="http://www.w3.org/2000/svg"
 width="512.000000pt" height="512.000000pt" viewBox="0 0 512.000000 512.000000"
 preserveAspectRatio="xMidYMid meet">
<metadata>
Created by potrace 1.11, written by Peter Selinger 2001-2013
</metadata>
<g transform="translate(0.000000,512.000000) scale(0.100000,-0.100000)"
fill="#000000" stroke="none">
<path d="M1971 5099 c-132 -26 -277 -136 -334 -252 -56 -116 -56 -102 -56
-872 0 -753 2 -784 49 -925 98 -294 330 -527 621 -624 81 -27 110 -34 147 -35
13 -1 21 -5 18 -9 -3 -5 -35 -10 -70 -11 -36 -1 -73 -3 -83 -5 -10 -2 -49 -7
-88 -11 -38 -4 -79 -9 -90 -11 -11 -2 -31 -6 -45 -9 -197 -38 -407 -106 -583
-189 -608 -287 -1075 -833 -1262 -1477 -54 -187 -81 -344 -91 -541 l-7 -128
2463 0 2463 0 -7 134 c-4 73 -9 144 -11 157 -2 13 -11 67 -20 119 -43 260
-155 563 -295 800 -32 55 -158 241 -169 250 -3 3 -24 28 -46 55 -59 76 -240
254 -330 327 -151 122 -303 218 -470 298 -92 44 -295 124 -341 135 -10 3 -57
14 -104 26 -89 22 -109 26 -150 34 -14 3 -35 7 -47 9 -12 3 -53 8 -90 12 -37
3 -75 8 -83 9 -8 2 -45 4 -82 4 -76 1 -90 15 -26 25 61 10 183 53 253 88 266
136 459 394 521 698 4 19 9 269 11 555 2 285 6 521 8 523 2 2 32 -5 67 -16 35
-12 144 -46 243 -77 99 -31 220 -70 269 -86 50 -16 92 -26 95 -23 12 11 99
299 93 305 -4 3 -133 45 -287 94 -154 48 -286 90 -293 94 -8 5 36 35 118 82
72 41 138 79 148 84 9 6 61 35 115 65 53 30 96 57 94 60 -36 75 -156 270 -165
270 -7 0 -75 -35 -150 -79 -75 -43 -153 -88 -172 -98 -19 -11 -75 -44 -124
-72 -49 -28 -90 -50 -91 -49 -1 2 -15 26 -31 53 -36 63 -127 153 -185 182
-118 60 -85 57 -704 59 -313 1 -590 -2 -614 -7z m483 -2717 c3 -5 -1 -9 -9 -9
-8 0 -12 4 -9 9 3 4 7 8 9 8 2 0 6 -4 9 -8z m246 -2 c0 -5 -8 -10 -17 -10 -15
0 -16 2 -3 10 19 12 20 12 20 0z"/>
</g>
</svg>
